<svg width="16" height="16" viewBox="0 0 16 16" fill="none" xmlns="http://www.w3.org/2000/svg">
<path fill-rule="evenodd" clip-rule="evenodd" d="M15.7534 0.307245C16.0983 0.698341 16.0791 1.31198 15.7103 1.67784L9.07871 8.25758L14.8179 14.3446C15.175 14.7233 15.175 15.3373 14.8179 15.716C14.4609 16.0947 13.882 16.0947 13.5249 15.716L7.74262 9.58323L1.53889 15.7384C1.17014 16.1043 0.591569 16.0839 0.246612 15.6928C-0.0983453 15.3017 -0.0790595 14.688 0.289688 14.3222L6.44891 8.21111L0.267791 1.65538C-0.0892595 1.27669 -0.0892595 0.662711 0.267791 0.284021C0.624842 -0.0946692 1.20374 -0.0946692 1.56079 0.284021L7.785 6.88546L14.4611 0.261558C14.8299 -0.104306 15.4084 -0.0838511 15.7534 0.307245Z" fill="#333333"/>
</svg>
