<svg width="16" height="16" viewBox="0 0 16 16" fill="none" xmlns="http://www.w3.org/2000/svg">
<path d="M15.9186 0.655302C15.8473 0.592833 15.746 0.57834 15.6601 0.618184L0.138394 7.83C0.0548304 7.86884 0.00101877 7.95221 1.42847e-05 8.04434C-0.0009902 8.13646 0.0510517 8.22098 0.133802 8.26159L4.52641 10.4173C4.60696 10.4569 4.70301 10.4479 4.77495 10.3942L9.04578 7.2021L5.693 10.6508C5.64517 10.7 5.62077 10.7674 5.62604 10.8358L5.95986 15.1833C5.96727 15.2796 6.03185 15.362 6.12364 15.3922C6.14818 15.4002 6.17338 15.4041 6.1983 15.4041C6.26666 15.4041 6.33314 15.3748 6.3794 15.3212L8.71085 12.6196L11.593 13.9967C11.6556 14.0266 11.728 14.0278 11.7916 14.0002C11.8551 13.9725 11.9035 13.9186 11.9243 13.8525L15.989 0.906758C16.0174 0.816354 15.9897 0.717772 15.9186 0.655302Z" fill="#949494"/>
</svg>
