<svg width="101" height="101" viewBox="0 0 101 101" fill="none" xmlns="http://www.w3.org/2000/svg">
<g clip-path="url(#clip0)">
<path d="M64.9044 12.4804C63.8894 5.36578 57.6966 0 50.5002 0C45.8722 0 41.4768 2.23328 38.7441 5.97614C38.1859 6.73945 38.3529 7.8102 39.1162 8.3684C39.877 8.92458 40.9502 8.75958 41.5074 7.99526C43.5993 5.13308 46.9605 3.42389 50.4997 3.42389C56.0034 3.42389 60.7383 7.52534 61.5146 12.9633C61.637 13.8174 62.3697 14.4338 63.2078 14.4338C63.2875 14.4338 63.3698 14.4278 63.4515 14.4167C64.3874 14.2828 65.0378 13.4157 64.9044 12.4804Z" fill="#BBBBBB"/>
<path d="M89.6306 31.644L84.4951 23.0846C84.1861 22.5685 83.6289 22.2535 83.0271 22.2535H78.1057C77.1608 22.2535 76.394 23.0204 76.394 23.9652C76.394 24.9101 77.1608 25.6769 78.1057 25.6769H82.0582L85.1395 30.8125H15.8638L18.9451 25.6769H20.7581C21.703 25.6769 22.4698 24.9101 22.4698 23.9652C22.4698 23.0204 21.703 22.2535 20.7581 22.2535H17.9762C17.3744 22.2535 16.8172 22.5685 16.5082 23.0846L11.3726 31.644C11.0552 32.1736 11.0477 32.8321 11.3511 33.3688C11.6545 33.9054 12.2232 34.2374 12.8406 34.2374H88.1627C88.7801 34.2374 89.3483 33.9054 89.6522 33.3688C89.9561 32.8321 89.9481 32.1726 89.6306 31.644Z" fill="#BBBBBB"/>
<path d="M81.0952 15.8597C80.8554 15.473 80.4728 15.1987 80.0304 15.0953L56.6941 9.63728C56.2523 9.53347 55.7869 9.6107 55.4007 9.84943C55.0155 10.0892 54.7407 10.4718 54.6374 10.9142L52.8775 18.437C52.6619 19.3573 53.2336 20.2781 54.1544 20.4927C55.0747 20.7084 55.9965 20.1366 56.2111 19.2158L57.5813 13.3606L77.5835 18.0393L74.4405 31.4776C74.2248 32.3979 74.7965 33.3186 75.7173 33.5333C75.8492 33.5639 75.9801 33.5784 76.1095 33.5784C76.8869 33.5784 77.5905 33.0458 77.7736 32.2569L81.3068 17.1521C81.4111 16.7102 81.3349 16.2448 81.0952 15.8597Z" fill="#BBBBBB"/>
<path d="M51.4042 19.9064L49.8445 6.71383C49.7913 6.26296 49.5611 5.85122 49.204 5.57036C48.8469 5.28951 48.3961 5.16112 47.9432 5.21428L19.3113 8.59855C18.373 8.70989 17.7019 9.56047 17.8128 10.4998L20.4131 32.5031C20.5165 33.3742 21.2552 34.0147 22.1113 34.0147C22.178 34.0147 22.2467 34.0102 22.3149 34.0027C23.2528 33.8913 23.9238 33.0407 23.8135 32.1014L21.4137 11.7968L46.6458 8.81471L48.0039 20.3071C48.1152 21.2459 48.9618 21.913 49.9051 21.8066C50.8435 21.6963 51.5145 20.8452 51.4042 19.9064Z" fill="#BBBBBB"/>
<path d="M64.9417 31.8747L61.5439 17.7448C61.4375 17.304 61.1602 16.9223 60.7735 16.6851C60.3868 16.4499 59.9229 16.3762 59.4791 16.4815L31.9019 23.1136C30.9826 23.3343 30.4169 24.2591 30.6376 25.1784L32.3357 32.2408C32.5564 33.1611 33.4812 33.7273 34.4 33.5052C35.3193 33.2845 35.885 32.3597 35.6643 31.4404L34.3659 26.042L58.6145 20.2113L61.6121 32.6761C61.8001 33.461 62.5023 33.9876 63.2751 33.9876C63.408 33.9876 63.5424 33.9721 63.6773 33.9395C64.5966 33.7183 65.1623 32.794 64.9417 31.8747Z" fill="#BBBBBB"/>
<path d="M89.8717 32.438C89.8246 31.5282 89.0733 30.814 88.1615 30.814H12.8395C11.9277 30.814 11.1764 31.5277 11.1293 32.438L7.70538 99.2006C7.68131 99.669 7.85082 100.127 8.1738 100.467C8.49728 100.807 8.94564 101 9.41507 101H91.5844C92.0533 101 92.5022 100.807 92.8272 100.467C93.1497 100.127 93.3192 99.6695 93.2956 99.2006L89.8717 32.438ZM11.2165 97.5761L14.4649 34.2374H86.5341L89.7825 97.5761H11.2165Z" fill="#BBBBBB"/>
<path d="M63.3387 37.6609C60.5066 37.6609 58.2031 39.9644 58.2031 42.7965C58.2031 45.6286 60.5066 47.9321 63.3387 47.9321C66.1708 47.9321 68.4743 45.6286 68.4743 42.7965C68.4743 39.9644 66.1708 37.6609 63.3387 37.6609ZM63.3387 44.5087C62.3943 44.5087 61.627 43.7408 61.627 42.797C61.627 41.8531 62.3948 41.0853 63.3387 41.0853C64.2826 41.0853 65.0504 41.8531 65.0504 42.797C65.0504 43.7408 64.2826 44.5087 63.3387 44.5087Z" fill="#BBBBBB"/>
<path d="M37.659 37.6609C34.8269 37.6609 32.5234 39.9644 32.5234 42.7965C32.5234 45.6286 34.8269 47.9321 37.659 47.9321C40.4911 47.9321 42.7946 45.6286 42.7946 42.7965C42.7946 39.9644 40.4911 37.6609 37.659 37.6609ZM37.659 44.5087C36.7152 44.5087 35.9473 43.7408 35.9473 42.797C35.9473 41.8531 36.7152 41.0853 37.659 41.0853C38.6029 41.0853 39.3707 41.8531 39.3707 42.797C39.3707 43.7408 38.6029 44.5087 37.659 44.5087Z" fill="#BBBBBB"/>
<path d="M63.3388 42.7964H63.2069C62.2621 42.7964 61.4952 43.5632 61.4952 44.5081C61.4952 44.7418 61.5414 44.965 61.6271 45.1681V53.9231C61.6271 60.0583 56.6355 65.0504 50.4999 65.0504C44.3643 65.0504 39.3726 60.0588 39.3726 53.9231V44.5086C39.3726 43.5637 38.6058 42.7969 37.6609 42.7969C36.716 42.7969 35.9492 43.5637 35.9492 44.5086V53.9236C35.9492 61.947 42.4765 68.4743 50.4999 68.4743C58.5232 68.4743 65.0505 61.947 65.0505 53.9236V44.5086C65.0505 43.5637 64.2837 42.7964 63.3388 42.7964Z" fill="#BBBBBB"/>
</g>
<defs>
<clipPath id="clip0">
<rect width="101" height="101" fill="white"/>
</clipPath>
</defs>
</svg>
